<mxfile host="Electron" modified="2023-06-03T03:29:18.356Z" agent="Mozilla/5.0 (Macintosh; Intel Mac OS X 10_15_7) AppleWebKit/537.36 (KHTML, like Gecko) draw.io/21.2.8 Chrome/112.0.5615.165 Electron/24.2.0 Safari/537.36" etag="Qtnnb1WyXdYuNcLAN3Mh" version="21.2.8" type="device">
  <diagram name="第 1 页" id="yP_mXU-59TViAVBNDUAV">
    <mxGraphModel dx="1754" dy="993" grid="0" gridSize="10" guides="1" tooltips="1" connect="1" arrows="0" fold="1" page="0" pageScale="1" pageWidth="827" pageHeight="1169" math="0" shadow="0">
      <root>
        <mxCell id="0" />
        <mxCell id="1" parent="0" />
        <mxCell id="w7VxPu3hipmNuZ68DGWy-2" value="" style="shape=image;verticalLabelPosition=bottom;labelBackgroundColor=default;verticalAlign=top;aspect=fixed;imageAspect=0;image=data:image/png,/9j/4AAQSkZJRgABAQAAkACQAAD/4QB0RXhpZgAATU0AKgAAAAgABAEaAAUAAAABAAAAPgEbAAUAAAABAAAARgEoAAMAAAABAAIAAIdpAAQAAAABAAAATgAAAAAAAACQAAAAAQAAAJAAAAABAAKgAgAEAAAAAQAAAvKgAwAEAAAAAQAAAGgAAAAA/+0AOFBob3Rvc2hvcCAzLjAAOEJJTQQEAAAAAAAAOEJJTQQlAAAAAAAQ1B2M2Y8AsgTpgAmY7PhCfv/iD9BJQ0NfUFJPRklMRQABAQAAD8BhcHBsAhAAAG1udHJSR0IgWFlaIAfnAAEAGgAUAAoAFWFjc3BBUFBMAAAAAEFQUEwAAAAAAAAAAAAAAAAAAAAAAAD21gABAAAAANMtYXBwbAAAAAAAAAAAAAAAAAAAAAAAAAAAAAAAAAAAAAAAAAAAAAAAAAAAAAAAAAAAAAAAEWRlc2MAAAFQAAAAYmRzY20AAAG0AAAEnGNwcnQAAAZQAAAAI3d0cHQAAAZ0AAAAFHJYWVoAAAaIAAAAFGdYWVoAAAacAAAAFGJYWVoAAAawAAAAFHJUUkMAAAbEAAAIDGFhcmcAAA7QAAAAIHZjZ3QAAA7wAAAAMG5kaW4AAA8gAAAAPm1tb2QAAA9gAAAAKHZjZ3AAAA+IAAAAOGJUUkMAAAbEAAAIDGdUUkMAAAbEAAAIDGFhYmcAAA7QAAAAIGFhZ2cAAA7QAAAAIGRlc2MAAAAAAAAACERpc3BsYXkAAAAAAAAAAAAAAAAAAAAAAAAAAAAAAAAAAAAAAAAAAAAAAAAAAAAAAAAAAAAAAAAAAAAAAAAAAAAAAAAAAAAAAAAAAAAAAAAAAAAAAAAAAABtbHVjAAAAAAAAACYAAAAMaHJIUgAAABQAAAHYa29LUgAAAAwAAAHsbmJOTwAAABIAAAH4aWQAAAAAABIAAAIKaHVIVQAAABQAAAIcY3NDWgAAABYAAAIwZGFESwAAABwAAAJGbmxOTAAAABYAAAJiZmlGSQAAABAAAAJ4aXRJVAAAABgAAAKIZXNFUwAAABYAAAKgcm9STwAAABIAAAK2ZnJDQQAAABYAAALIYXIAAAAAABQAAALedWtVQQAAABwAAALyaGVJTAAAABYAAAMOemhUVwAAAAoAAAMkdmlWTgAAAA4AAAMuc2tTSwAAABYAAAM8emhDTgAAAAoAAAMkcnVSVQAAACQAAANSZW5HQgAAABQAAAN2ZnJGUgAAABYAAAOKbXMAAAAAABIAAAOgaGlJTgAAABIAAAOydGhUSAAAAAwAAAPEY2FFUwAAABgAAAPQZW5BVQAAABQAAAN2ZXNYTAAAABIAAAK2ZGVERQAAABAAAAPoZW5VUwAAABIAAAP4cHRCUgAAABgAAAQKcGxQTAAAABIAAAQiZWxHUgAAACIAAAQ0c3ZTRQAAABAAAARWdHJUUgAAABQAAARmcHRQVAAAABYAAAR6amFKUAAAAAwAAASQAEwAQwBEACAAdQAgAGIAbwBqAGnO7LfsACAATABDAEQARgBhAHIAZwBlAC0ATABDAEQATABDAEQAIABXAGEAcgBuAGEAUwB6AO0AbgBlAHMAIABMAEMARABCAGEAcgBlAHYAbgD9ACAATABDAEQATABDAEQALQBmAGEAcgB2AGUAcwBrAOYAcgBtAEsAbABlAHUAcgBlAG4ALQBMAEMARABWAOQAcgBpAC0ATABDAEQATABDAEQAIABhACAAYwBvAGwAbwByAGkATABDAEQAIABhACAAYwBvAGwAbwByAEwAQwBEACAAYwBvAGwAbwByAEEAQwBMACAAYwBvAHUAbABlAHUAciAPAEwAQwBEACAGRQZEBkgGRgYpBBoEPgQ7BEwEPgRABD4EMgQ4BDkAIABMAEMARCAPAEwAQwBEACAF5gXRBeIF1QXgBdlfaYJyAEwAQwBEAEwAQwBEACAATQDgAHUARgBhAHIAZQBiAG4A/QAgAEwAQwBEBCYEMgQ1BEIEPQQ+BDkAIAQWBBoALQQ0BDgEQQQ/BDsENQQ5AEMAbwBsAG8AdQByACAATABDAEQATABDAEQAIABjAG8AdQBsAGUAdQByAFcAYQByAG4AYQAgAEwAQwBECTAJAgkXCUAJKAAgAEwAQwBEAEwAQwBEACAOKg41AEwAQwBEACAAZQBuACAAYwBvAGwAbwByAEYAYQByAGIALQBMAEMARABDAG8AbABvAHIAIABMAEMARABMAEMARAAgAEMAbwBsAG8AcgBpAGQAbwBLAG8AbABvAHIAIABMAEMARAOIA7MDxwPBA8kDvAO3ACADvwO4A8wDvQO3ACAATABDAEQARgDkAHIAZwAtAEwAQwBEAFIAZQBuAGsAbABpACAATABDAEQATABDAEQAIABhACAAYwBvAHIAZQBzMKsw6TD8AEwAQwBEdGV4dAAAAABDb3B5cmlnaHQgQXBwbGUgSW5jLiwgMjAyMwAAWFlaIAAAAAAAAPMWAAEAAAABFspYWVogAAAAAAAAccAAADmKAAABZ1hZWiAAAAAAAABhIwAAueYAABP2WFlaIAAAAAAAACPyAAAMkAAAvdBjdXJ2AAAAAAAABAAAAAAFAAoADwAUABkAHgAjACgALQAyADYAOwBAAEUASgBPAFQAWQBeAGMAaABtAHIAdwB8AIEAhgCLAJAAlQCaAJ8AowCoAK0AsgC3ALwAwQDGAMsA0ADVANsA4ADlAOsA8AD2APsBAQEHAQ0BEwEZAR8BJQErATIBOAE+AUUBTAFSAVkBYAFnAW4BdQF8AYMBiwGSAZoBoQGpAbEBuQHBAckB0QHZAeEB6QHyAfoCAwIMAhQCHQImAi8COAJBAksCVAJdAmcCcQJ6AoQCjgKYAqICrAK2AsECywLVAuAC6wL1AwADCwMWAyEDLQM4A0MDTwNaA2YDcgN+A4oDlgOiA64DugPHA9MD4APsA/kEBgQTBCAELQQ7BEgEVQRjBHEEfgSMBJoEqAS2BMQE0wThBPAE/gUNBRwFKwU6BUkFWAVnBXcFhgWWBaYFtQXFBdUF5QX2BgYGFgYnBjcGSAZZBmoGewaMBp0GrwbABtEG4wb1BwcHGQcrBz0HTwdhB3QHhgeZB6wHvwfSB+UH+AgLCB8IMghGCFoIbgiCCJYIqgi+CNII5wj7CRAJJQk6CU8JZAl5CY8JpAm6Cc8J5Qn7ChEKJwo9ClQKagqBCpgKrgrFCtwK8wsLCyILOQtRC2kLgAuYC7ALyAvhC/kMEgwqDEMMXAx1DI4MpwzADNkM8w0NDSYNQA1aDXQNjg2pDcMN3g34DhMOLg5JDmQOfw6bDrYO0g7uDwkPJQ9BD14Peg+WD7MPzw/sEAkQJhBDEGEQfhCbELkQ1xD1ERMRMRFPEW0RjBGqEckR6BIHEiYSRRJkEoQSoxLDEuMTAxMjE0MTYxODE6QTxRPlFAYUJxRJFGoUixStFM4U8BUSFTQVVhV4FZsVvRXgFgMWJhZJFmwWjxayFtYW+hcdF0EXZReJF64X0hf3GBsYQBhlGIoYrxjVGPoZIBlFGWsZkRm3Gd0aBBoqGlEadxqeGsUa7BsUGzsbYxuKG7Ib2hwCHCocUhx7HKMczBz1HR4dRx1wHZkdwx3sHhYeQB5qHpQevh7pHxMfPh9pH5Qfvx/qIBUgQSBsIJggxCDwIRwhSCF1IaEhziH7IiciVSKCIq8i3SMKIzgjZiOUI8Ij8CQfJE0kfCSrJNolCSU4JWgllyXHJfcmJyZXJocmtyboJxgnSSd6J6sn3CgNKD8ocSiiKNQpBik4KWspnSnQKgIqNSpoKpsqzysCKzYraSudK9EsBSw5LG4soizXLQwtQS12Last4S4WLkwugi63Lu4vJC9aL5Evxy/+MDUwbDCkMNsxEjFKMYIxujHyMioyYzKbMtQzDTNGM38zuDPxNCs0ZTSeNNg1EzVNNYc1wjX9Njc2cjauNuk3JDdgN5w31zgUOFA4jDjIOQU5Qjl/Obw5+To2OnQ6sjrvOy07azuqO+g8JzxlPKQ84z0iPWE9oT3gPiA+YD6gPuA/IT9hP6I/4kAjQGRApkDnQSlBakGsQe5CMEJyQrVC90M6Q31DwEQDREdEikTORRJFVUWaRd5GIkZnRqtG8Ec1R3tHwEgFSEtIkUjXSR1JY0mpSfBKN0p9SsRLDEtTS5pL4kwqTHJMuk0CTUpNk03cTiVObk63TwBPSU+TT91QJ1BxULtRBlFQUZtR5lIxUnxSx1MTU19TqlP2VEJUj1TbVShVdVXCVg9WXFapVvdXRFeSV+BYL1h9WMtZGllpWbhaB1pWWqZa9VtFW5Vb5Vw1XIZc1l0nXXhdyV4aXmxevV8PX2Ffs2AFYFdgqmD8YU9homH1YklinGLwY0Njl2PrZEBklGTpZT1lkmXnZj1mkmboZz1nk2fpaD9olmjsaUNpmmnxakhqn2r3a09rp2v/bFdsr20IbWBtuW4SbmtuxG8eb3hv0XArcIZw4HE6cZVx8HJLcqZzAXNdc7h0FHRwdMx1KHWFdeF2Pnabdvh3VnezeBF4bnjMeSp5iXnnekZ6pXsEe2N7wnwhfIF84X1BfaF+AX5ifsJ/I3+Ef+WAR4CogQqBa4HNgjCCkoL0g1eDuoQdhICE44VHhauGDoZyhteHO4efiASIaYjOiTOJmYn+imSKyoswi5aL/IxjjMqNMY2Yjf+OZo7OjzaPnpAGkG6Q1pE/kaiSEZJ6kuOTTZO2lCCUipT0lV+VyZY0lp+XCpd1l+CYTJi4mSSZkJn8mmia1ZtCm6+cHJyJnPedZJ3SnkCerp8dn4uf+qBpoNihR6G2oiailqMGo3aj5qRWpMelOKWpphqmi6b9p26n4KhSqMSpN6mpqhyqj6sCq3Wr6axcrNCtRK24ri2uoa8Wr4uwALB1sOqxYLHWskuywrM4s660JbSctRO1irYBtnm28Ldot+C4WbjRuUq5wro7urW7LrunvCG8m70VvY++Cr6Evv+/er/1wHDA7MFnwePCX8Lbw1jD1MRRxM7FS8XIxkbGw8dBx7/IPci8yTrJuco4yrfLNsu2zDXMtc01zbXONs62zzfPuNA50LrRPNG+0j/SwdNE08bUSdTL1U7V0dZV1tjXXNfg2GTY6Nls2fHadtr724DcBdyK3RDdlt4c3qLfKd+v4DbgveFE4cziU+Lb42Pj6+Rz5PzlhOYN5pbnH+ep6DLovOlG6dDqW+rl63Dr++yG7RHtnO4o7rTvQO/M8Fjw5fFy8f/yjPMZ86f0NPTC9VD13vZt9vv3ivgZ+Kj5OPnH+lf65/t3/Af8mP0p/br+S/7c/23//3BhcmEAAAAAAAMAAAACZmYAAPKnAAANWQAAE9AAAApbdmNndAAAAAAAAAABAAEAAAAAAAAAAQAAAAEAAAAAAAAAAQAAAAEAAAAAAAAAAQAAbmRpbgAAAAAAAAA2AACnQAAAVYAAAEzAAACewAAAJYAAAAzAAABQAAAAVEAAAjMzAAIzMwACMzMAAAAAAAAAAG1tb2QAAAAAAAAGEAAAoC4AAAAA0OXuAAAAAAAAAAAAAAAAAAAAAAB2Y2dwAAAAAAADAAAAAmZmAAMAAAACZmYAAwAAAAJmZgAAAAIzMzQAAAAAAjMzNAAAAAACMzM0AP/AABEIAGgC8gMBIgACEQEDEQH/xAAfAAABBQEBAQEBAQAAAAAAAAAAAQIDBAUGBwgJCgv/xAC1EAACAQMDAgQDBQUEBAAAAX0BAgMABBEFEiExQQYTUWEHInEUMoGRoQgjQrHBFVLR8CQzYnKCCQoWFxgZGiUmJygpKjQ1Njc4OTpDREVGR0hJSlNUVVZXWFlaY2RlZmdoaWpzdHV2d3h5eoOEhYaHiImKkpOUlZaXmJmaoqOkpaanqKmqsrO0tba3uLm6wsPExcbHyMnK0tPU1dbX2Nna4eLj5OXm5+jp6vHy8/T19vf4+fr/xAAfAQADAQEBAQEBAQEBAAAAAAAAAQIDBAUGBwgJCgv/xAC1EQACAQIEBAMEBwUEBAABAncAAQIDEQQFITEGEkFRB2FxEyIygQgUQpGhscEJIzNS8BVictEKFiQ04SXxFxgZGiYnKCkqNTY3ODk6Q0RFRkdISUpTVFVWV1hZWmNkZWZnaGlqc3R1dnd4eXqCg4SFhoeIiYqSk5SVlpeYmZqio6Slpqeoqaqys7S1tre4ubrCw8TFxsfIycrS09TV1tfY2dri4+Tl5ufo6ery8/T19vf4+fr/2wBDAAICAgICAgMCAgMFAwMDBQYFBQUFBggGBgYGBggKCAgICAgICgoKCgoKCgoMDAwMDAwODg4ODg8PDw8PDw8PDw//2wBDAQICAgQEBAcEBAcQCwkLEBAQEBAQEBAQEBAQEBAQEBAQEBAQEBAQEBAQEBAQEBAQEBAQEBAQEBAQEBAQEBAQEBD/3QAEADD/2gAMAwEAAhEDEQA/AP38ooooAKKKKACiiigAooooAKKKKACiiigAooooAKKKKACiiigAooooAKKKKACiiigAooooAKKKKACiiigAooooAKKKKACiiigAooooAKKKKACiiigAooooAKKKKACiiigAooooAKKKKACiiigAooooAKK+fPj58Utc8Fw+G/h/8Pljn8f/ABCvW07RlmXzIbWOJPNvdRnTI3Q2UGZCufncxx/x5Hr/AIR8NQeD/Dll4dt7y61EWinfdX0zXFzcSuxeSWWRurO7MxAAVc7UVVAUAHSUUUUAY+r+IvD+gCJte1O100TZEZuZkh37eu3eRnGRnFZdt4+8C3lxHaWfiPTZ55mCJHHeQs7s3ACqHySewFeQfHL9k74AftI3mlah8Z/Cw8QXOiRyRWkgvLy0aNJiGdf9Fmi3AlQfmzjtjJr8sv8AgnP+xh+zX8UPh7rfxD8d+Dxqmv8Ah3xnqNpYztf30axQWPkPboYop1jfYzE5dWLdGyKAP3Yor5u/ap8S/GzwR8Ita8efBG60O3v/AAxaXmqXya5BcTpNZ2du8zxweQ6bZTt+Uvlexx1Hi3/BOf8AaS+Iv7UnwP1n4h/E5bJdUsvEN1psYsIWgiFvFa2sy5Vnclt0zZOemPSgD76ooooAKKKKACivlP4A63rPxI+JfxX+LEt/PJ4bOqR+F9BtjKxtvs/h/fHeXcaA7CZ76WdN4GSsSjOK+rKACiivF/jVovjn+wE8dfC2WSTxb4VWS5tdPaVltNWg+VriwnT7uZ0TEMuN0UoRgdhkRwD2iiuD+F/xH8M/F34faB8S/B0xn0fxDapdQFxiRN3DxyAE7ZI3DI654ZSO1d5QAUUUUAFFFFABRRRQAUUUUAFFFFABRRRQAUUUUAFFFFABRRRQAUUUUAFFFFAH/9D9/KKKKACiiigAooooAKKKKACiiigAooooAKKKKACiiigAooooAKKKKACiiigAooooAKKKKACiiigAooooAKKKKACiiigAooooAKKKKACiiigAooooAKKKKACiiigAooooAK+XfG/7Qt3/AMLptv2cfhJplvr3jgWB1TVZ7yVotO0SwygSS5MatJLLKXXy4E2kghmdFOT9RV+OP7O3hXxZJ/wUJ/aa0TWPFWp+GNavPsOoWj2aWMr3OmMf3P8Ax/Wt0NkcckKjy9uD8rdAAAfcQ+PfiPwB8bPDPwQ+NFjYxy+O4LqTw9rmmebHaXdzZhWnsp7aYyNbzBWDIwmkSQED5W4Pk/xv/a3+NvwH8c+FPDHjD4TaR/YPjLVU0uy8Rr4pkXTYJZXxGL3fpSvbuU+bB3KcNtdtrEek/Ev9nbwv4m8QeAPG/wAV/iVr963gXxDYahpCT/2RawvqUk8cUEMhttOikdZpGWMoHG7PUda7z9p3Rvh14p+DOu+DPiZpb65p/iRV0610632i8u9QmP8AosdoW4WcSAOrn5YwpkciNHIAOU+OPxz+LXw7+JHhD4c/Cv4ZwfES78V213cOTrY0t7COzZBJNcK9pOqwfvUCyb8s+UCltobC/aP+OPx4+BfwWl+Ltr4G0DUv7FtDc63aHXLkm2JlWNBasbCMXKgNudn8gjoqt1rwz9ifxJ4m+FfxB8Qfsy/tEyGX4sQ2trc6brU07Tpr2g2sXl28dtLIqE/Y8SB4wAWYySkFzK59x/4KEf8AJmPxW/7BQ/8AR8VAGt4E+LH7QHxZ+G2i/EnwR4L0fSbXVtNtb63t9cv54p75poVkYotvDKLaBif3MkjO7KQzxR9D037O/wC0j4a/aAsNfsodOuPDXi/wbetp3iDQb1la50+6VmUfOvyyxSbG8uVQA2DwCCK3v2Zv+Tb/AIUf9inoX/pBDXwF+z7Fc6t/wVS/aE1/wiCfDFjodjZam8f+pOqlLEICOnmAw3Iz6q/rQB7z4Muh8Qv+ChfxE1C5/ewfCbwlpOjWyZykVzr7tfzSgdpHijRMj+EYr7H8deOPC3w18Hav4+8bX6aZoWhW73V3cOCRHFGMnCqCzMeiqoJYkAAkgV8U/s7I2mftx/tVabdjbLf/APCG30B/vwf2bKhI/wB1vlPvWT/wVW0bxLrH7Fvi0eHVkeOyutOur9IyctZxXKFyQOqo5R29Au7tQBh/BX9rv9oz9rW51fxJ+z14B0Pw/wCAtGuXtF1XxZd3LTX8ygNthgsk/dlVZS+WdV3DDMcqKPjL/goN4k8GfF34efs7+I/Ao0X4j+IPE2naTrMMszXOnRaZeSRRrfafcqIjMJ/M/dB0UxmN1lTIG7pf+CUOoaJe/sSeDrbSihubC81eG/2gZFyb+aVd3qfIki69sV8V/t23FpN/wVI/Z0igkR5oH8LrKqkFkJ1ydlDgcg7SCAexz3oA/fGvzl/4JkeGPEfhX4JeMrDxNpdzpNzN431yVI7qF4XaP9ym8K4BK7kYZ6ZBr9CNZ1E6Po99qy2k9+bKCWcW9qnmXE3lqW8uJCRudsYUZGSQM1heAPFF7428F6N4t1HQr7wzc6tbJcPpmpIsd5alxny5kUsFcdxnI6EA5AAPPv2nP+TbPix/2KWu/wDpBNX50/8ABG3VNN0T9kTxbrGs3cVhYWXizUZp7id1ihiij0+wZnd2IVVUDJJOAK/Rb9pz/k2z4sf9ilrv/pBNX83/AMB/2bv2iPjP+wh4p1j4aeKy+haJ4juL9fCUEGW1aeC3tvtDzSE4lZESIwW7KyMytxvZaAP2N+Bf7TX7WXx61691Hwl8OfDg+HtnqhtYvEU+oXtvDqNpHNskmsInt/MmwgOGKLGX+UPwcfpHXwl+wP8AtceGf2oPhLb27Q2+j+M/CcUNnq+lQKIY0CLsiuLeIYCwSBeFA/dsCnQKzeuftDfEb4M6T4P17wL8Xbu7h0HUbOGDWZrNbhUsLPU5vscMlzc2+DAssp2LzuIDHaUVyAD6Rrw/9o/4lXvwm+Cvijxlo0fn64lutno8AwWn1a/dbWxjAPXdcSpkemT2r1rQdE03wzoeneHNGiMGn6VbQ2ltGXaQpDAgjjUs5LNhVAyxJPUkmvlb4pf8XO/ac+G3wnT95pPgSGXxzrC/wm4jLWWjREjv57T3AB/54KfSgD234L/Dew+DXwk8LfDa1lEieHNPht5pyf8AX3AXdcTsT3lmLyMT3Y18oeOP2vfjX9l1bxb8EPgXc+NvAGjxTzP4kv8AXbLQ7a6htlLS3FpDcq0stsArFJgAsgG5AVIJ+976xs9TsrjTdRgS6tLuN4poZVDxyRyAqyOpyGVgSCDwRXxh+3TrqaP8CLL4T6Fi0vfinrOk+CrKOEBAkOpzqlyFVcYQWiSrxgLkfSgDg9D/AGlf26PEGmafrWnfsqxNY6lDFcQyP420yMmKZQ6sUaIOvykEgruHQjPFfodavcS2sMl3EIJ3RTJGG3hHI+ZQ2BuweM4GfSnwwxW8KW8CCOOJQqqowFVRgAD0AqSgD4L/AGMLk+F/HXx/+ByAR2ngzxnLqFhCOlvY+IYhfRRIOyB/MZf94196V+fv7M8bXv7Z37WfiG3GbKe98IWKt2M9jpUizD/gJcfnX6BUAFFFFABRRRQAUUUUAFFFFABRRRQAUUUUAFFFFABRRRQAUUUUAFFFFABRRRQB/9H9/K57xVbeKrvQLu38E6hZ6VrbhPs9zqFnJf2sZDgt5lvFcWrvlNwGJkwSGOQCp6GvN/jF4+tvhX8J/GPxJuiuzwzpN7qADdHe3hZ0T6uwCgdyaAPz2/Z0/aQ/a7/aJ+J/xQ8DaNqPgbTdD+GepNpb6ydC1Of7fN500SmG3/tdAqkQMzEynAZcZzkfp/o0WsQaRZQeILqC91OOGNbqe2ga2glmCje8cLyzNGjNkqhlcqOCzdT+a/8AwSW8A3Phf9lCDxnqgZ9S8f6vf6xLJJ/rGRXFpHuPofIaQf7+e9fp1QAUVmarrWjaDa/btcv7fTrYHHm3MqQpk9tzkCuT/wCFr/C3/ocdG/8ABjbf/F0Ad/RUUM0NzDHcW8iyxSqHR0IZWVhkEEcEEdDUtABRWO/iHQI9ei8KyalbLrU9s95HYmZBdPbRusbzLDneY1dlUuBtDMATkitigAoqnf6hYaXbG91O5itLdWRTJM6xoGkYIgLMQMsxCgdyQByauUAFFNd1jRnbooJOBngewr5Of9uD9muN2jfxBqQZSQR/wjuudR/240AfWdFfJX/Dcf7NP/Qw6l/4Tmuf/INaei/tl/s8+IdYsdB0nXdRlvtRnjt4EbQNZiVpZWCIC8lmqKCSMsxAHUkCgD6iooooAKKKKACuT8b2fja/8NXVr8PNVsdF119vkXWo2UmoWyYYFg0EVxbMxZcgESDaTkhsYPWUUAfE37CXxx+Jnx4+GPirX/iw9jJrnh/xVqWh7tOhaC3MVlFbkEKzOxy7uck5xivtmvzV/wCCYH/JK/il/wBlI8Q/+gWtfQXhf45eKvjb4o8SaR8CbfTl8NeEb59LvfEmqCa4gudRhUNNb2NnA0LTJCWUSTvcRruOI1kGWAB9UUV80eG/jvqWkfF+0+Afxi0+10bxTrNnLfaFfWMryadrcFvn7QsSyqJILmFQHkt2aQbDuWRx0o+OP2hr9PjrYfs0/CrS7bWfGkmltrep3N9O0NhpOnLIsavKIleSaaR3UJCuzhlZnVTQB9S0V8I3f7R/xjb4yat+zOuiaDpHxAtNEl1/TL2ea5udO1i1X5Ykt4P9GeOVpQ6Sh5yIghdTKMhfsPwJfeLdT8F6HqHj7TYdG8S3NlBJqVlbyieG3u2QGaOOQZDKr5AIJ47nrQB1dFFFABRRRQAUUUUAFFFFABRRRQAUUUUAFFFFABRRRQAUUUUAFFFFABXg3xP/AGfvC/xF8WaN8S9N1C88JePfDsbwWOu6WY1uPs8nLW1zHMkkVzbMeTFKhwclCjEmveaKAPHND+FusP4gsfFHxG8VXHi280hmk0+2NtBZWFpMyGM3CwRAu8+xmUPLK4QMfLVCWJ8tP7K13efGTw78bNf+LPi7WdV8MTTSWVhcvpq6XHHco0U0QtYbGNQHiYxmQHzcfx5ANfWtFAHyT+0B+yPoP7Qnjzwf8QNY8beIfC+oeBd0mkjRHsoDBcyOHkn82a1mlZnCopQv5e1BhMs5bhP219B1fw1+wl8T9H1zxFe+KruHS23ahqEdrFcyBrmMqHWygt4flHygrGCQMnJya+8a8a+L3wC+F/x30+PR/ilY3uraaiFGsotW1GxtJgWV/wB/b2dzDFMQygqZFYr/AA45oA8G/Z7+FnjKP9m74c2Pgb4hX/hvTNV8MaPM0Jtba+ls3ns4nlNjNcKxiDMzMFmWdEJxGqIFQfQHwX+Bvw9+AvhaXwt8P7ORBe3El7f3t1Ibi+1C8mO6S4u7hvmlkYnqcADhQBxV/wCFnwe8CfBjQz4Z+HkF9Z6UFiSO1utUv9Sit0hXaiW631xOIEA42RbVPGRwK9PoA+HPiDYt8Iv2y/BnxilPk+GvibpJ8F6pJj93Dq0Mv2rSZZD6zjzLZT03bQeWFfa2pabp+safc6Tq9rFe2N7E8M8E6LJFLFICro6MCrKwJBBGCODWB458EeGviP4U1HwV4vtBe6TqkYSaPcyMCrB0kjdSGSSN1V43UhkdQykEA1Y8IaTrmheHLLR/EesN4gv7NTG1+8KwS3CKx8tpUQlPN8vaJGUKruGZUjBCKAfG3g79hXQ/g5rusan+zr8RPEXwz03xA/mXuk2n2LUdP39ngi1G2uDE4HAbLHAA6DFflB+0p8L9C+FP/BT34F6Po97qGrXGp33hfUL/AFDVbpru9vbyXWZY2mlkIVQdkaIqRqiKqqFUAV/SZXxPrH/BOz9j7xBrsnibWvA015q0kpm+1Sa3rBlVy5kyjfbfkwxJAXAB6AUAWP2wfix8RvhL8PPFPjbw3fPoNp4f063OmSRQW93NrOu6hObe1shHMJNsERCtMFQSSCQeXJGIn3/W/h2XW7jw/pk/iWGK21eS1ha9igJaKO5KAyrGSSSofIUknivk74x/s46jrFj8HNG+HNvBc+F/hbrkWqyaHqF7OovPskEiWRN5KtzIxt5mDkSBt6553AA/TfgXRvEGh+G4LXxXqX9q6xNJPc3UwLeUstzK0xhgD/MIId3lQg8+Wq7stk0AcJ8dfgz/AMLz8HP4HuPF+teEtPuxNFenRZLeKS8triJoZLeY3EM4MbK5yAAc968i/Zk/Y08N/sqyTWXgLx14l1Lw/MJ3OjanPaSWIuJ/L3XAENrC/mhYwoO7GCeK+x6KAPzJ8Nf8EwPAHgz4g6j8VvB/xW8c6H4t1WS5lub6zvNPhaU3b+ZMHUWO1ld/mKnIyAeoBrY/a20jQPEHxP8Ahj8Drzy9N8P+LdVm8ZeM9QuXEcNzp3hO2g2xTu5C7ZWSEOBgIEDnGST+j1Yms+GfDfiM2h8Q6VaaodPmW4tvtUEc/kTL92SPeDscdmXBHrQBW8KeIh4o8L6d4oeym0uPUoFuVgugEmjikG5PMXPyMUwSp5XOGwQRXzN+yYreNbbxz+0XdgmT4o61JLpzHgjQNJzY6WMdhIiSXPHXzya+g/if4R1Lx98OfE3gbR9Ybw/eeINOurCPUEi857U3MbRmVY9ybmUMSvzDnnNbXhLwxo/gnwto/g3w9D9m0rQrO3sLSIfwQW0axRr+CqKAOgrwX4ofAPQ/ir8Tfhl8R9d1S6hX4ZXl5qFtp8QT7Pd3VzEkcUkxI3AwFdybe5INe9UUAFYfibxJofg3w5qni3xNeJp+kaNbTXl3cSHCRQQIXkc+wUE1uV5h8R/hna/FBtK0fxLeF/CtpOLq/wBJEfy6lNA6SWyXEu7/AI943Xe8IX96wQM3lh45ADwr9ijwbrulfDLWPif4xtHsfEfxb1y/8W3VvKuJbWC/YCytmzyPLtUjyp5VmYHnJr7EoooAKKKKACiiigAooooAKKKKACiiigAooooAKKKKACiiigAooooAKKKKACiiigD/0v38r8x/+CtHj+48K/snXPg7TCzal4/1aw0eGOP/AFjIrm7k2j0byBGf9/Hev04r4Q+LX7C9r8bvEnh7xR8Rvi54u1K58JXn27SIgmixW9pOJFkVhDHpixykFFGZVckDByCQQD6l+DfgC3+FXwl8HfDa2C7fDOkWWnsV6PJbwqkj/V3BYnuTXMQfEW48T/HiX4b+Fb5H0/wbpn2zxF5YSTF5qDBNOtGYglG8qOeeQAhgPJz8r88frPwA+Juu6dNpd7+0B41ihnUqzWtv4etJgCMfLNb6RHIh91YGtT9nj9nXwN+y54O1zR9A1jUdYbWdQn1nVNW1y4jnvZ53RVZ5p1SMFVVM5YdSzE5JoA4jxR+z/wDAzwb4K8T/ABU+PWkWfxP1PSbfUNZ1DVfEVlb30qwwo07QWsUyPHbwRouyKGMAADJLMSx8c/Ys/ZY+DWq/Ajw/8TfiN8MfC974o8dyS+JZPM0WzeOzi1B/Ns7e0R4iIYYrbytqJgBtzfeYk4X7aX7THwL+I/wth+BXgX4qeGmvfiLqNtpWoX0Wr2jQaZpKSCa/uZ5fMMaZijMSKxzIz7UBIOPrfwR+0D8CNUvvDnwz+Duu2vjNvLW0ji8PTRajDptpaxYEt7NE5jt4gFCKXbc7EKiscgAH0WiJGixxqERAAABgADoAKdXj3iv48fDDwV8VfCfwX8SaqbTxX42iuJdLtzDIY5Rbglg0wXy0ZtrBQWySMdSoOJ8TP2j/AIWfDqTWvDcniCwvfHGnQQm18OJcxjU726vflsreGAnezTyFVBAIUMGbC80AfnX8T/EWs+D/APgoP4E/aIupWXwhqeuT/C52Pyx82UUsT7umDqNxcI2eB9mPqTX7Aatq2maDpd3ret3cVhp9hE89xcTuscUMUalnd3YgKqqCSScAV8N/tD/sw6/49/Yzu/hVpdz9s8eaPEmvWt5H8rXHiKGVr25ljz91rqaSdVOfl832rB+F9j8X/wBsjw/4X8S/tAeGpfBPw/0+3tLmXw5PlLnxHqsSqzz30RAMWmxTAtBatzMQHl+QKpAPAvi78UPiF8e/2mP2ctMthLovwt8ReI59U0iwlRo7vWovDsaXo1S6jODHbO237JC43MoMzgbkC/sfX5k/HTxJ4d0H/go58CH8UX1tpOnaX4Y8QTwz3UiQQJLPFLERvchQdiHvX6bUANdiqMwUsQCcDqfYZwK+T3/ag8Uo7J/woD4jttJGRZ6MQcen/E2r6yooA+S/+GovFP8A0b/8SP8AwD0f/wCW1aei/tI+JtY1ix0mX4GfEDTUvZ44Wurq00lbeASMFMkrJqjsETOWKqxwDgE8V9Q0UAFcz4y8O3Pi3wzf+HbTW7/w5NfIEXUNLeJL23wwbdC08U0YJA2ktG3BOOcEdNRQB8lf8Mt+Jv8Aov8A8SP/AAO0j/5VUf8ADLfib/ov/wASP/A7SP8A5VV9a0UAeXfDD4bal8N7K+s9R8c+IPHBvJEkWXxBNaTSQbQQViNra2wCt1IYNyOCOc+o0VzHjDQdW8S6BPo+ieIr3wrdzFCuoadHaSXMQVgWCLewXMHzAbSWiJAOVwcEAH5s/wDBPC31q7/Z9+Ntr4bk8rV5vHfipLNwdu25a3txEcnph8c9q1f+CSbJD+yRHpM6GHU9L8QatbahG/Esd0sisVkB5DBGXIPNfQ/7PP7Julfs13F/D4K+IHibVNH1e9uNSvtM1VtMnt7i+ukVHuDJFYRXCN8qnCSqpI5U81011+zxY6J451n4jfCTxFd+A9X8TOsusW9rFBdaZqM6qVFxNZzoQlx6ywvGz/8ALTfQB8X/ALeEOrax+1r+yFong8s+vweI728kER+ePTopbCS7Z8HPlmCOXPqqsK9C8Q+B/EPhj9v3U/jH8K9PXxHct4OsbTxVpH2mG2u2t765mWzuLA3BSF3U6cFljkkiULtIclyF+ovAXwC8O+EvHV98WfEWp3njHx5qFsLJtY1Pyt9rZhi4tbKCFI4raDcxJVF3ueZHc818aT/CjTf2z/jx8Q/EviLxBrPw6ufhRqEng+0Tw1etpus3lsFjuzc305Em61meRmtEWNRgOxZs8AHs3hL4GeMvG/7WLftYfEvT08NR6FoI8PeHtF8+O5vAjySyTXd7JAzwI5EzokUUko2nJcFcH7cr8pfjT+zl49/Zg+GfiH45/CT9oHxol14Ms5NSbTfFeqLrGlX/AJPzG2eKRIwrz/6tCMtvZQuCQR+mXgfXrzxV4L0DxRqFi+l3Wsafa3k1pKCJLeS4iWRomBAO5CxU5GcigDl/if8ADbUPiRY2Nlp/jfxB4IazkaRpvD81rDLOGGNkpura5BUdRtCnPc141/wy34l/6L78SP8AwP0n/wCVdfWtFAHyV/wy34l/6L78SP8AwP0n/wCVdH/DLfiX/ovvxI/8D9J/+VdfWtFAHyV/wy34l/6L78SP/A/Sf/lXR/wy34l/6L78SP8AwP0n/wCVdfWtFAHyV/wy34l/6L78SP8AwP0n/wCVdH/DLfiX/ovvxI/8D9J/+VdfWtFAHyV/wy34l/6L78SP/A/Sf/lXR/wy34l/6L78SP8AwP0n/wCVdavww8Zax8dvHur+PdNvJ7P4deEb640rRUgkaNdbv7bdBfX0xU/vbWGTdBbR5KM6yTMGIhKfUFAHyV/wy34l/wCi+/Ej/wAD9J/+VdH/AAy34l/6L78SP/A/Sf8A5V19a1FPDHcwyW8w3RyqUYZIyGGDyOaAPjp/2eLmNij/ALR3xAVlJBB1TRgQR2P/ABLKu237M2tXsZls/wBoT4izoDgtHqOkMM+mRpZr8wf2w/2Df2Z/hP43+A+leBvDtxYWnj3x3puiasjahdTebY3U0ayRoZZGZCQxAZTuHrX68/AH9l/4M/syadq+l/B7R5dKh12WKa8827nujI0KssePOd9oUM33QM55zgYAOM/4Zb8S/wDRffiR/wCB+k//ACro/wCGW/Ev/RffiR/4H6T/APKuvjf48/tk/tXfAr9qzwL8E/EFh4NufDPjzV7NbK4s7fUHvU0u71H7IBO0twka3Ij5JSNk3cjjiv19oA+Sv+GW/Ev/AEX34kf+B+k//Kuj/hlvxL/0X34kf+B+k/8Ayrr61ooA+Sv+GW/Ev/RffiR/4H6T/wDKuj/hlvxL/wBF9+JH/gfpP/yrr61r5k/a08X+IfD/AMJj4T8D3j2Hi74h6hZ+FtGniYrJb3GqPsluUZSGU21qJpww5Uxg8daAMX/hlvxL/wBF9+JH/gfpP/yro/4Zb8S/9F9+JH/gfpP/AMq6+qdOsl03T7XTkllnW1iSISTOZJXCKF3O7csxxkseSeauUAfJX/DLfiX/AKL78SP/AAP0n/5V0f8ADLfiX/ovvxI/8D9J/wDlXX1rXzD4S8Zav8M/jHH8BfGd7Nf6V4ltbjUvCGpXUjTXEi2mDfaXcSuS8stsGWWGRstJASHZniZ3AMj/AIZb8S/9F9+JH/gfpP8A8q6P+GW/Ev8A0X34kf8AgfpP/wAq6+taKAPkr/hlvxL/ANF9+JH/AIH6T/8AKuj/AIZb8S/9F9+JH/gfpP8A8q6+tax9D8QaF4nsDqnh3UINTsxNPbma2kWWPzrWVoJo9ykjdHKjIw6hlIPIoA+Yv+GW/Ev/AEX34kf+B+k//Kuj/hlvxL/0X34kf+B+k/8Ayrr61ooA+Sv+GW/Ev/RffiR/4H6T/wDKuj/hlvxL/wBF9+JH/gfpP/yrr82P2s9A8X/s3ftU6X8S/id4v8X6v8BviLeSR3K2XiDVLQ6FfXB3uqC1nTESEGSKMDBh8yNV3Rqx/Ryw/ZD+Euq2FtqmmeL/ABrd2d5Gk0E0XjXW3jlikUMjoy3ZDKwIII4IoAt/8Mt+Jf8AovvxI/8AA/Sf/lXR/wAMt+Jf+i+/Ej/wP0n/AOVdVrv9iz4cXMJih8YePLVj/wAtI/GWslh9PMuXX9K+Ofjx+wB+0DomnTeMf2aPjz40utV00/aY9E13W7iZLkxncI4rkPGoPGFSZGVs4Z1GTQB9n/8ADLfiX/ovvxI/8D9J/wDlXR/wy34l/wCi+/Ej/wAD9J/+Vde2/B/4gRfFT4YeGviAlu1lNrNlHLc2rqVe1u1+S5tnVuQ8E6vEwPIZSK9IoA+Sv+GW/Ev/AEX34kf+B+k//Kuj/hlvxL/0X34kf+B+k/8Ayrr61ooA+Sv+GW/Ev/RffiR/4H6T/wDKuj/hlvxL/wBF9+JH/gfpP/yrr61ooA+Sv+GW/Ev/AEX34kf+B+k//Kuj/hlvxL/0X34kf+B+k/8Ayrr61ooA+Sv+GW/Ev/RffiR/4H6T/wDKuj/hlvxL/wBF9+JH/gfpP/yrr61ooA+Sv+GW/Ev/AEX34kf+B+k//Kuj/hlvxL/0X34kf+B+k/8Ayrr61ooA+Sv+GW/Ev/RffiR/4H6T/wDKuj/hlvxL/wBF9+JH/gfpP/yrr61ooA+Sv+GW/Ev/AEX34kf+B+k//Kuj/hlvxL/0X34kf+B+k/8Ayrr0n48/FqX4R+DIL3RbFdY8V+Ib2DRvD2msxUXmq3mRCrsOVhjAaWZ/4YkY9cV2/wAP/C+p+EvDMGm69rVx4h1eVmuL6+uGP766l5kMUedsEIPyxQoAqIAOTliAfP8A/wAMt+Jf+i+/Ej/wP0n/AOVdH/DLfiX/AKL78SP/AAP0n/5V19a0UAfIVz+zNrVlGJbz9oT4iwITjdJqOkKM+mTpdUk/Z4uXYIn7R3xAZmOABqmjEknsP+JZXpPx+/Zg+DX7TemaRpPxh0eXVYNDllmtPKu57UxvMoV8+S6bgwUfeBxjjGTn8hf2P/2Df2Z/iv48+POj+OfDtxfWfgLxxf6LpKLqF1D5VjbyyLHG7RSKzkBQCzHcfWgD9Rv+GW/Ev/RffiR/4H6T/wDKuj/hlvxL/wBF9+JH/gfpP/yrr1f4xy/FzRPhzcT/AAHTQ/8AhIdPUOieIRdNZG2iRi6/6Kyy+YcKFJOOua+Of+Ccf7XvxO/a58MeNtd+JdjpVhN4fvbS3tk0qCaFCk8bu28TTzknKjGCKAPb/wDhlvxL/wBF9+JH/gfpP/yro/4Zb8S/9F9+JH/gfpP/AMq6+taKAPkr/hlvxL/0X34kf+B+k/8Ayro/4Zb8S/8ARffiR/4H6T/8q6+taKAPkr/hlvxL/wBF9+JH/gfpP/yro/4Zb8S/9F9+JH/gfpP/AMq60P2r/Eevp4P8P/CrwTqM+l+J/ihrVpoNrdWcjRXVpZkm51K7iZCGUw2UM2GBBV2U5zivqRVCqFGcAY5OT+ZoA+S/+GW/Ev8A0X34kf8AgfpP/wAq6P8AhlvxL/0X34kf+B+k/wDyrr61qOWJZonhfO2QFTglTgjHBGCD7jmgD5O/4Zb8S/8ARffiR/4H6T/8q69p+GPw6v8A4caZeadqHjXXvGz3cwlFxr81tNNCAoXy4za21soTjOCpOT1xxXmPw78baz4J+K17+zv47vJb9pLJtX8K6pcuXn1DTImWO5tLiRuZLuxkZQXOWlgeOR8yCVj9NUAFFFFAH//T/fyiiigAqG4t7e7t5bS7iWaCZWSSN1DI6MMMrKeCCOCD1qaigDif+FafDn/oVdJ/8AYP/iK6TStG0fQrb7FoljBp9uWLeXbxLEm49TtQAZ960qKAPN/GHg258WeK/Cl5PHbrpfh+5k1CWRvmuZJ0TZbwINvyxb2853Dg7oY02srMVzbv4EfB2++KVv8AGy88IafL45tYxFHq7Qg3IUJ5YOehdU+RXI3BflBA4r1qigAooooA5DXPh74C8T69pPinxL4b03VtZ0Es2nXt3aQz3NmXwWNvLIpeInaMlCOgrr6KKACiiigAooooAKKKKACiiigAooooAKKKKACvJfFnwR+Hni/xKvje5s7jSvE6wi3/ALX0m8uNMvnhU5WKaW1kjM8akZWOcSIOy161RQB4Y37PHw71LUrHVvGZ1LxlPpky3FrHruo3F9aQzJ9yVbJ3Fp5qHlZDCXU8hhXudFFAHNeMvGPhr4feFdV8b+Mb+PS9E0S3kuru5lzsiiiGWOBkk9goBLHAAJIFfN/gr4yfHH4q/D+L4u/D/wADadb+H9Rg+2aRpurahJBqup2ZG6OVmihkgtGnTBhRjKCCpdkBOPHv+Cqlh4nv/wBizxevhsSNHBc6dNqCx9Wso7pC+QOSqvsZvQAk8A17j8HvCXjTVPhJ4J1LQPiTeR6Zd6JpstqiafpzKsD20bRqD5ByApAHNAD/AAb+0XqXxk+CmlfGD4B+FF8Vy3jyxXWkX+oLpN1az24YTW7O8M0ZmSQBQrFEIIfeBjPOfss/tTa5+0ponjjUbrwQvg3UfBl82lyaZd6ms159sjRmkS5jFvGbZAwVVch9x34A8vntP2bvgn4M+BOn+N/DPhHxJceIZ9W8R3WsaqLloN1pqGoQQSvCIrdEWJTGY5FQjO1wehFfBv7XXhHUtH+LniD4+fA/Sb3U9J0CzgsfitZadOII9a05Xila1jAUl7uC1y1yylSsDIm7LOKAPsf9nj9oL4xfHW2g8R6l8Iv+EP8AClwZhDqV1rkVw1yIwwSS2t47YNJDI6gLIxRWQ703rjPl2jftj/F6T9o7U/2avEvwgit/EkGijVrI6drgvraYPLGitPcSWlsLe3VWcySFGcMoRI5HdFP2t8NvGvgv4i+A9C8bfDu7hvfDer2kc1jJAAqCHG0JsGNhjIKMhAKMCpAIIr8/9B/5S1+JP+yYR/8ApwtqAPcfiD+014r+AWr6Jc/tC+FbPSPBniC7jsE8RaNqEl/a6ddzZ8tNQintraSKJscTpvXP3lWu7/ay+JVx8K/2ZfiN8RNInEV5p2iXP2KZW+5c3K+RbupHpLIpGOteLf8ABTa40C3/AGJfiOuv7Ns0dglsG+8bo30Bi2d8gjJx/CDnjNeJ/tFaF4zk/wCCR50jxQkp8QWvhLw3JeLL/rV+zXFlLIJO+9Y0O/POQc80Afe37OPgOz+GPwE+H/gOyi8pdI0SxikHdrhoVedz7vKzMfc14L+1b+3L4L/Zp1zQ/hzpWh3Pjr4j+JmiXT9BsXETkXDmKFppSr7PNkG2NVRnY5OAME/ZXhu+ttT8O6XqVmd1vd2sE0ZHdJIwy/oa/nk8cQXWi/8ABaXR7n4iA/Y77VrF9OablGSXTBDZeXnjAuAFGOkgPegD9Vr747/tI/CXw3H8Rv2hfh5o1v4OjCPqkvhrU57/AFDRIXIBnuraW3RJ4os5mNvKzIoLBXANb37G/wC1TF+1r4U8Y+ONP0kaTpOi+IrnSdOBYtNPZxQwzRzTA8JI4l5VeF6ZPU+w/tCvbR/AL4lNesiwDw1rHmGQgJt+xy53Z4x9a/ND/gih/wAm3eMv+xsn/wDSCzoA9t/b50TWdW+IX7L0+l2M95HZfE3R5J2hjaRYkWVHLOVB2qFRmJPGAT2r9Iq8+1Xx+dL+I2g/DpfDur3h1y0u7ttVt7XdpVkLXb+7urksAkkpbEaAMT1OBzXoNAH4L/8ABSD/AJP/AP2a/wDr50X/ANPVfpF+1v8AtOeIP2fLTwrpvw+8OWvjrxh4qvxaWvh8Xbw6hcRlTmWCKKKZmRGHzswVFHVs8H8yP+Cnll4l1L9uP9nzT/Bc1tbeILn+y49OlvAzW0d4+rkQNMEyxjEm0uF525xzVfQvG/xL/YC/bcvdV/ak1BfG/h/4pwRwr4zmtQs8CIw5h+8YIoHYJPaxttEflyKCFRSAftH8GvEfxp8TaHc3/wAavB1h4K1Den2a0sdT/tQmMrljLIIo1Vw3GFLDvur2Ksq613RbLRJfEt3fwRaRBbtdyXbSKIFtlTzDKZM7dgT5t2cY56V4L8PtV+EHxF+M/iDx/wCFtS1KTxloekWekX2n3pvbNLaxvHN5bzCwuVjUGfGRMEyQpXghgQD6Pr5Ak/4un+2PHF/rNF+CWjeY3ofEHiNdqj0Jg0+Mn1H2kfj9TeI/EGk+E/D2qeKdenFrpmjWs97dTN0jgt0Mkjn2VVJr5y/ZA8P6tb/CIfEXxRAbfxH8Ub+68W6jG33ov7UIa0tznkfZ7NYIcHoUNAHonxl+Mem/CHRbOZNHvvFPiLWZWt9J0LSoxLf38yLufYpIVIol+aaZyEjXGTuKq3x3L+2R+1TH4si8D/8ADK98danspdRS2/4SvTt5tIpUhaUkQlVG+RVALZPO0EKxH6JNomjvrUfiR7OJtVit3tEuigMy28jrI8Sv1CM6KzAcEqpPQY+P/gNr/wDwsv8Aac+O/j+NvO07wtNpXgnT37K+lxy3eoL6Z+03e0+yL9AAei/Az4q/HH4i3+qQfFn4OXHwwtbOKNraefWrTVPtUjMQyBLdVZNo53Hg5x1rxz/goRcN4O+Evhn45Wa7b74V+K9E1pZRw32aW5WyuYiRz5csdxtcdxj0r7yr4O/4KaTpH+xH8R7cgvLeLpdvCg5Z5ZdTtQqgdz3/AAoA+8AQwDKcg8gilrN0a1lsdIsbK4OZbeCKNyOfmRQD+orn/HvhrXPFvhm50Pw54nvfB99M0ZTUtPjtZbiMIwZlC3cM8RDgbTlM4PBBoA7Kvkr9if8A5IbL/wBjR4v/APUgv6P+GevjN/0cX4u/8ANB/wDlbXzV+yb8Eviprnwhkv8ASfjl4l0K3HiHxPF9mtbLRnjLw61eRyS5msJH3TOpkcbtoZiFCrhQAfqVRXh/w0+Fvj/wRrc+qeKvivrvjm1lgaJbLU7XS4YY5CysJg1nZwS7wAVAL7cMcqTgj3CgDzT4wfCbwb8cfhvrnwu8e2n2vRtdgMUmMCSKQfNHNExB2yROA6HHUDIIyD+Y37D3xZ8Z/s6fFTUf+Cf/AO0Fd7rzSmabwZqsuViv7B9zpbozE8MoLQjJ2sJICcoi1+wlfmN+3p8JfDf7RPjf4b/CbwS0tp8W9OvY9Xg1mzO1tB0SKQfaLq6Zfm2vIqi1jBVmnGVZVEmQD9OaKq2MEtrZW9rPcPdyQxojTSBQ8rKAC7BAq5Y8naAM9ABxVqgDP03SNL0aGW30m0isop55rmRIUCK89w5lmkIUAF5HZndurMSTyTWhRXn3xB+J/hL4YxaDJ4slnj/4SXVrXRLFbe2mumkvbzd5assKsUXCsWdsKoHJ6AgHoNFFFABRXmPw1+J1h8UG8SXuhWUqaNoerT6TbX7Mpi1GSzCpcywAc+VFceZBuPDNGxHGCbvxB+J/hL4YQ6DN4slnj/4STVrTRLFbe2mumkvbwt5SlYVYquFYs7YUAcnOAQD0Gvm/4s/tC2vgf4heGPgl4K0oeKfiP4vjkuLXTjcC1trOxhDeZfX1xskMUClGChY3eRgVRSa+kK/HnR9E8Yy/8FbviPb3evXHh2TVPBNtLolwsMFx5tkgsEliiW4V1A8+OdiVGco/OCaAPtnXPj94n+E/xG8GeBPjfpNha6d8Qbr+zdJ1vSp5Xtk1QgGOyuoJ0V4zN0hlV3DNwypjNeeftK/tcfFD9mq6s9Q1/wCEseq+FNT1FNOttbh1+OK2haZ9sLXyvabrUOOSxLxr03k4B6n45fs5WvxR8MaXF8X/AInahFonhjVrPXI5Vt9Os/KurMkRMZhBlQd5Xjk5r3P43Wnw41D4UeJtN+Llsl54TvbRre9t2QyPMJiEjjhRfnad5CqwBPnMpTZ8+KAPMfjz8efH/wAJF8B2vgr4ct8QtW8b3b2K2NlqsdrLBOsHn71MkLLJbhFk8ydjGkeE3ffGG/FL4w/HL4cfBa8+Ka/DLTr3UdFs73UdW0tvEXl/ZbSzjMu6KcWLLPIUViyYQAjCu+RXx7+xrqXiX4GfFxP2ev2jUuk8U3ukRjwHqeoXCXIfQI/3r6OsiKsa3ds2PP2E+bsUbjFFblvvL9qL/k2f4t/9ihr3/pvmoA8m+DH7Qvxk/aB+FWh/E34ffD2w0221S0ExfXNVltY5rgFleO1WC0nleJWXaZ5ViyQSkbphz3XwK/aT0D4ya14o+H+q6TP4Q+IXgecQa1oF5IkssQYApcW8yYW4tpARslCqSCCVUMhbj/8Agn9/yZp8KP8AsDr/AOjZK+VkS5vv+CwskvgnPk6d4IVfExj4X50JhWX1JLWZA68A9jQB714ouv8AhP8A/goh4L8IXJMmnfC/wVqHiOMA/KNT1i5XTl3joWW2DMhPTccdTX3Dq+r6ZoGk3uva3dR2WnabBJc3M8rBY4YYVLySOx4CqoJJ7AV8G+D0bTv+Cl/xAtrsbZNX+HmlXlt/tQwXxgcj6ScV33/BQLTvE2qfsa/FW08JCRr/APsnzHERwxtIZo5LwcdQbZZdw7jIoA8S+HP7cXxQ/ah8a65oP7Jvw+sr7wx4bk8u68S+J76axs5WbOxIbe3glmy4BZQcsFwZFjyAc/40/wDBQ3XPgVNp/wAN/iB4BOl/FK/1KwtobRblrrR7rTrqQo+o2t6I4mdBtZPKeOORZCAQVBNcj/wRkutEl/ZX1m20/YL+DxPe/bQBhyzW1sY2buQUwAenBHY14B/wV8e1Px0/Z9jRk+0Ca4LgEbwhvLTYSOuCQ2M8ZzjvQB+99fm5+wToms6T8Sf2orjVLGezivfiVqskDTRtGsqNLI4ZCwG4FXVgRxgg96/SInAJ9PSuA+F/j4/E7wXZeNP+Ed1fwsL551Ww1y1+x38awytEGkg3MUEgXemTkqQSBmgDpfEv/Iuar/16T/8Aos1+Jf8AwRCdI/h58VJJGCqup6eSScAAQS5JNftp4l/5FzVf+vSf/wBFmv5Wf2P/AIF/tHfG79mD4waT8GPFkejaXHcW7XOkQoy3muXEURb7I1zlRFEYmbC8iWQhJMJ8wAP2b8Kfte/tF/Fj4l+MvCvwP+FOj+LPCXhfUJrOLxQ2uvb6ZdBG+QRyG1YSyhceYsO9UP8AHgqzfpNX5p/8E1/2p/DPxm+E9v8ACW/0+28M+Ovh3brZX2lQwraJLbwny1uoYFChMt8s6ADZKckAOor9C/FHirQfBukPrniK5+zWqvHEu1HllllmYJHFFFErSSyyMQqRorMxIABNAHQ0V8+fCSb4U+LvHvjz4m+BtR1C58Q3c9ro+uWd9JdRfYJtNi/dwrY3AUQbkk8wsqYk3FgTls+p/ELxvovw18CeIfiF4ify9M8N2FzqFwc4Jjto2kZVz/E23CjuSBQB84eG/wDi6f7XviPxS377RPg5pSaBZHqh1zWljvNRkQjjdDaLaxH08xx9PUPjT8bLb4S2Wn2Ok+HtQ8a+LddZ00vQdKVWu7kRY82Z2chILeLcvmTSEKpZV5ZgDgfso+CNa8GfBTSLvxcm3xX4uluPEuukjDf2lrMhu5Y2/wCuAdYB6LGBXvSaJo6a1L4kSziGqzW8do91sHnG3id5Ei39dgd2bHTJzQB+diftkftVS+K5/BEf7K182uW1lFqMlsPFenbktJ5HhjlZvJ2gO8TqBnJ2njAzX1N8Cvib8Z/iMmsP8W/hLP8AC4WJhFn5+sWuqG937/MwLZVMfl4XluG3cdDXlf7LviD/AIWZ8Wfj38XIm8yxfxHB4T089QbXw1b7XZD3R7q6ncEcHJr7VoA+DP257o+Bx8G/jjZDy7zwP4402GefoV0rWQ9jfx59JFaP8VFfedfn5/wUyRr39l+XQrcbr3WvEPh+ztVHVp31CJlA98Ka/QOgAooooA//1P38ooooAKKKKACiiigAooooAKKKKACiiigAooooAKKKKACiiigAooooAKKKKACiiigAooooAKKKKAM3WNH0rxDpN5oOu2cWoabqML29zbToJIpoZVKvG6NkMrKSCDwRXzT4I/Z58YfCPSD4J+EPxGudJ8GIzfZNN1Owi1WbS43Ys0VhdPJEyxjPyLcpchOgyvy19UUUAeD6z8FtWHgceDfAHjvVvB9zc3E11qOr28VndanqE1wP3ss0tzBIiyMcYaNE2KqpGERVUQfBH4GXPwS+E918LbDxhqOvl57+4t9U1KO3lvIZNQdppGciMLOwnd5d0wYsWKsSoAHv9FAHxR+zl+x5qH7NDPpvgv4pa5e+HLq8e+utGvLXT2s5JpfvmLbbrJbhuCVhZV46V84ar4Wn8Vf8FW9bhsNXutC1HT/hvFdWl5aFS0cy3sMeHikDRzRsjsro6kYO5Ssio6/rI6h0ZCSAwIyDg8+hHSvki3/Yl+CNr45b4nQT+Jl8YSQi3fV/+Eo1k3zwDH7lpjdbmj+UfIfl4HHFAGj4o/Zob4t+JtC134/+JR4x0zwxcre6foFpYrp2im7QELcXcDy3U1zIoPyh5hEOf3ZDNn2v4p+AtN+Kfw08U/DbVzss/E+mXenSPjJjFzE0YcD1QkMPcCu9ooA+WP2NPGGp+I/gJoPhrxT+58W+AQ3hbXbc/fhv9Ixbkt6+dEI5lYcMsgI60ftJfsffCD9p+LS73xvFdaV4j0IhtO1zSpVttRtdrb1USFXDIH+cKyna2ShUkk+pN8MYtO+KLfFDwrejS7jV4UttftTH5kOqRW6MtrKcMvlXUBO1ZRu3xExurYiaL1WgD84P2iP2dfHF9+zh8QF+LXxd1zxtpnh7w1qt7b2C29npUNzcWVnLLA989pGs1z5ciK4QyKjMoLq9fO//AARx1K80b9k74i6xp+ny6vdWPiO+nhsoComupItNtGWGMuQoeQgKpYgZPJxX6k/GT4HfD/48eH4PC/xGivbjTIHdzDZ6hdWAl8xDGySm1kjMiFWIKMSp9K8z+DH7F/wB/Z+8QL4k+E+lX+jTqJQYTq1/PaOZkCM72807xM+0ABiuRgYPFAGB8Ifit8Ttc/aU8a/B7xBf2uvaV4S8P6Xeatc29uII9P17UZJJFsbYjLPbm02uDKXlDKSWw20fZNfEnwC+B/xV+HPiXxO3iO4t418QeL9V8T6rq9vPvm1aK4Bj0+ySLZmGGGMqZQzfKyBIw6SMy/bdAH5zfFX/AIJ62/xf+LGn/GTxT8W/Ev8Ab/h+9+16I0UOnhNLEdybqCKEG2O9YXI2mTcTj5ia9F/aC/Yz0/8AaU+FnhT4XfEfx3q00fhub7TNqCQWYur+4CGNZZSYdsbAM3+qVQdxyDxX2pRQB8kfBP8AZYtPgv4Jn+Hut+PNc8deDoILZLTTNYMLR2SWcvnqInt445WTKqDE7Mm0bNu0lT4t+xB4mt/FF74h+NmtQy3Hij496rfaxBEuwvp3hrRS1jpouMtlVGNi7QSzSfdwrlf0grm/D/gzwf4Tlvp/CuhWGjSanKZ7trK1it2uJSSxklMaqXYlmO5snJJ7mgD5o/a5ll8XaH4Q/Z6092F18WdZh0682HDpoViPturSA9g1vF9n57zqOpr63iiigiSCBBHHGoVVUYVVAwAAOAAK8jb4VG7+O6fGjVNS+0pp/h/+xNMsPKwLR7i5Nxe3PmFjuecR28Ywq7VjPJ3cewUAFfP37N3wC079nbwNqPhG11mfxDea1rF/rd/qFzGsUlxd37gsxRSQMIqLnJyRnjOB9A0UAFfDv7Vdifi58RvhP+zhp2J0vdZg8WeIVA3CLQtCbeqy4+6Lq7MUSHuVbHQkfcVeVfDr4Yw+DdR1zxfrd4Na8YeKZI31PUvL8lWjgBW2tbeLc/lW1urERpuYlmaR2aR2YgHqtFFFABXzp+yz4J8T/D/4USeHfF1kdP1A+IPEt35RZHPkXus3lzbvlCwxJFIjjnIB5wcivouigAooooA8R+Ovxkg+EPhm1Ol6e3iDxj4kuBp3h3RIm2zajqEgJVSf4IIlzJcTH5Y4wSTnaDU+Avwbn+Fmi6jrPizUF8QfEDxfOuoeJNY24+03e3CQwg8paWyfureLgKgzjczZ+a/Hn7MP7UevfHzVvjj4Q+MWk6NNJbNpuk2tz4dW+GmacW3NFCZpyBJMQGnlVQ0hAHCBUGr/AMKd/b//AOjh9E/8JG3/APjtAH3xWB4p8U+HPBHh3UPFvi7UoNI0bSoWnuru5cRxQxJ1ZmP6DqTwOTXw7c/Bb/goHPE0cX7R+kW5II3R+ELQsPcb5GH6V8v/ABM/4JoftKfHK8sl+NX7SFz4n0u3nSVrNtNeG3AB+Zo4I7hYFkK5Afy8j6cUAfqN8J/ibL8RfhTYfFi/sJNP0/WYrjUbKFY3edtLMjtZStGoZzLNbCOUooJDPsGcZPimpfH34k+G/i/8JfBXiXRbGKz+LcmqrDpiJKNU0qDTrUXSz3E5lMMjbSBPEsKCJmwssuzc/wBb6XplhommWejaVAttZWEMdvBEgwscUShERR6KoAFfCeif8XM/4KKeI9V/1um/Brwfa6Yo6iPVvEMpuWcH1NogQigD6i+IfjL4neGb+0t/Anw8l8ZW80ZeadNUtLAQuGwE23BDNkc5HHavk342fHv9pJtMtPhR4V+FM+geNPH6XNnpdyuuafcSWsUKBry8VUYBTbxNlHdlTzmiUklgp+qfih4J8TeIWTXNK+KOs/D7T9Nt5GuU0+HSXt2VMu00r6jY3TrtXrh1UAZxnJPxv8DPgl8U/ijLcftE6x8ZPFenXfiCKSy0CVrLQvtX/CNLL5lq8yS6W0cb3b5uSIo0PltCshZowQAfTXwMuPHPh3TNH+Gtz8KJPA3hbQrBba1uG1eyvgogVVRGSA72d+WZz1bJbk1wt/8AtE+OrD44fDj4fyaJbf2X8R7rWo7eyeKePVbTT9IiLDU7h3YRpHM4AS3aENsdT5pfdGPY/Afwx8c+Etd/tbxD8VvEPjG08p4/sOpW2jRW+5sYk3WWn2025ccASAc8g185ap8NvjGf2sfHfxOt9KaX+09B0jw74S1kPbvaaPYSM82rTzwyvva4ScB4kETCXKKzBDIUAPvSvCfi/wDADwp8WtV0Dxj9tu/DPjXwlI8uj+INLMa31r5ilZImEqSRzW8gJEkMiMrAnGCSa92ooA8Ms/hX4w1y/wBPufix4xXxNZaTNFcwadZ6cmm2U1zAd0U92pluJJ3ifDxqJEiDqrmMsqFfOfHn7MXiz4hfErQfiDrfxe8QJaeGNWXVdN0WK309NNhZGJRHjFuGn2oSiySs7rklSp5r65ooA+UP2nf2VbD9pt/CR1PxhqnhT/hDr06lZyaTHbLcrergRzLcSxvLGUxwqMFJwWBKqRJ8Y/Dfijwr+yV8XNL8W+LLrxleDwrr7LfXlta2swj/ALNkURlLOKGI4ILbtgJLY6AV9V15Z8WPg94Q+NGgHwt43m1P+yJUmiuLbT9UvNNjuop1CyRXAtJYvOjKjGx8rgnjk0AfFv7DPgH4gQfsh/Dq6+HnjYaJb6vpPmy22oWA1SO2meSTfLZHz4GiLn5mSQyxbuVjXc276v8Agr+z54I+CJ17VdHlutb8T+LLo3ut67qbpLqOoTnpveNI0SJMkRxRosaDoOpN74N/AP4f/AXSW8PfDdtUttHCLHDYXeq3t/aWyhmfFvDdTSpDuZiW8sLnvXtFAHw3+0FYn4YftIfCT9pQnyNDkW58E+JJ+0NnqzLJps0h6JEl+qq7HgeYvTmvt+eCC6gktbqNZoZlKOjgMrKwwVYHggjgg1ieK/Cvh7xz4a1Pwd4tsI9T0bWbeS1u7aYZSWGVdrKccjg8EEEHkEEA1lfD/wAN654Q8NQeG9c1yTxEdPZorW8nj2XTWi/6lblgSJZkX5XlAXzMBioYnIB8f+Hf2EdG+EfjvWfHX7NHjvVfhePEZzqWkw29rqWkykEshjtrlCYihZtuHO0HaoVcqfyZ/wCCknwog+Gv7Rnwfv73xDqni3X/ABC8c2o6pq0yPLKYbyJI44oYUigghjBbZHFGoG4k7iSa/pbr4r8f/wDBPz9mH4peLLzxv490PUtX1i8uZrvzZNb1ILDJPIZW8hFuAkK7jkKgCjjA4oA739pX4jeK/hx4J17xTpl7/wAI7ofhrRL7V77VjDFcO88K7bOxtklJTzJ5T87OjAKAigNIHj9N+DXiLxf4v+Evg3xX4/sYtM8SaxpFleahawhhHDczwrJIgViSuCfuknaeMnGa+cPjp+zDca98DfCfwY+HBlvfDeieJdN1PVtO1K/muJ9V0mC7e7ubP7XdNIxZpWV08xtuECZUYx9Q+AtO8W2emXd943uUk1XVbuS6a2hkMltYxFVjitYHKoWVI0UuxUb5WkcBQwUAGb8V/AuvfEXwlJ4Z8PeL7/wVcTSqz3+mx28k7RAMHixcxyptfPJ2544NfK37L37Cum/so601x4B+I+vXeg3Urz32j3cdkbW7mMLQo7ukCyqY8hl2uBlRnIzX3nRQB+Zd9/wTU0Fvjjq/7Qvh/wCKvibw74y1W+ub4XGnpYwrEbnIaMJ5BV02Ha28Hf1fLEk/oBD4U0u3sPDt54puW1jUPCcO+PUbohHM/wBnME106JtiEjxs+SFwodguATXaV8b/ABMtP2rPGUPxM+GWl6TpFpo/iaOPT/D2uLNsTTtPurcxXs92vmNPNdqWJgijgSPIG6XHQA5H/gnvDN4k+Fvi746XyMLn4ueLda8QR7xh0sRObS0i552okBK57NXcftR/8V/rvw2/Zzg/eReOtYXUdaTt/YHh8pe3SvjkLcXH2a39xIw9a+gfhZ8PNE+Evw38M/DLw4WfTfDGn2+nwu+N8ggQIZHxxvkILNjjJNc5pfwqNt8cdd+NWqal9tnvdFstC0218rYLC1hmkuLr59x8xrmZo2Y7VwIkHOM0AewVDcRySwSRRSGF3UqrgAlCRgMAcgkdeeKmooA8E/Zp+A2lfs2/CTTfhbpmqza69rPdXVzqFwgjlurm7maZ5GVSwH3go5JwoySa97oqOXzTE4gKiTadpYEqGxxkDBxnrQB8Q/tB2LfGH9ob4P8AwR0/E9h4S1AePfEWBkW8OmhodKjc9M3N07EITkrEzYIFfcVeXfDP4ZWngCPV9Xvrs6z4q8UXC3mtaq8flNdzogjjRI8t5VvBGBHBCGbYgyzPIzu/qNABRRRQB//V/fyiiigAooooAKKKKACiiigAooooAKKKKACiiigAooooAKKKKACiiigAooooAKKKKACiiigAooooAKKKKACiiigAooooAKKKKACiiigAooooAKKKKACiiigAooooAKKKKACiiigAooooAKKKKACiiigAooooAKKKKACiiigDxz4s/BTQPi7deFNT1TVtS0bUPBepDVdNuNOliUpdCNow0kU8U0MoAYkB4zg9OCwOr8L/AISeEPhLp2pWvhlJ7i9128k1HVNRvZTPfahey4DTXEpAycABVULGigKiKvFenUUAeffFH4d6Z8V/BN/4A128ubTStWaBb0WrhHubVJUkmtXYgkRXCKYZduGMbsAQTmu8gghtoY7a2jWKKJQiIgCqqqMAADgADgAVLRQAUUUUAFFFFABRRRQAUUUUAFFFFABRRRQAUUUUAFFFFABRRRQAUUUUAFFFFABRRRQAUUUUAFFFFABRRRQB/9k=;" parent="1" vertex="1">
          <mxGeometry x="-690" y="-130.5" width="326.25" height="45" as="geometry" />
        </mxCell>
        <mxCell id="w7VxPu3hipmNuZ68DGWy-3" value="&lt;font style=&quot;font-size: 14px;&quot;&gt;InfoNCE&lt;/font&gt;" style="text;html=1;strokeColor=none;fillColor=none;align=center;verticalAlign=middle;whiteSpace=wrap;rounded=0;" parent="1" vertex="1">
          <mxGeometry x="-775" y="-123" width="60" height="30" as="geometry" />
        </mxCell>
        <mxCell id="w7VxPu3hipmNuZ68DGWy-4" value="" style="shape=image;verticalLabelPosition=bottom;labelBackgroundColor=default;verticalAlign=top;aspect=fixed;imageAspect=0;image=data:image/png,/9j/4AAQSkZJRgABAQAAkACQAAD/4QB0RXhpZgAATU0AKgAAAAgABAEaAAUAAAABAAAAPgEbAAUAAAABAAAARgEoAAMAAAABAAIAAIdpAAQAAAABAAAATgAAAAAAAACQAAAAAQAAAJAAAAABAAKgAgAEAAAAAQAAANagAwAEAAAAAQAAACgAAAAA/+0AOFBob3Rvc2hvcCAzLjAAOEJJTQQEAAAAAAAAOEJJTQQlAAAAAAAQ1B2M2Y8AsgTpgAmY7PhCfv/iD9BJQ0NfUFJPRklMRQABAQAAD8BhcHBsAhAAAG1udHJSR0IgWFlaIAfnAAEAGgAUAAoAFWFjc3BBUFBMAAAAAEFQUEwAAAAAAAAAAAAAAAAAAAAAAAD21gABAAAAANMtYXBwbAAAAAAAAAAAAAAAAAAAAAAAAAAAAAAAAAAAAAAAAAAAAAAAAAAAAAAAAAAAAAAAEWRlc2MAAAFQAAAAYmRzY20AAAG0AAAEnGNwcnQAAAZQAAAAI3d0cHQAAAZ0AAAAFHJYWVoAAAaIAAAAFGdYWVoAAAacAAAAFGJYWVoAAAawAAAAFHJUUkMAAAbEAAAIDGFhcmcAAA7QAAAAIHZjZ3QAAA7wAAAAMG5kaW4AAA8gAAAAPm1tb2QAAA9gAAAAKHZjZ3AAAA+IAAAAOGJUUkMAAAbEAAAIDGdUUkMAAAbEAAAIDGFhYmcAAA7QAAAAIGFhZ2cAAA7QAAAAIGRlc2MAAAAAAAAACERpc3BsYXkAAAAAAAAAAAAAAAAAAAAAAAAAAAAAAAAAAAAAAAAAAAAAAAAAAAAAAAAAAAAAAAAAAAAAAAAAAAAAAAAAAAAAAAAAAAAAAAAAAAAAAAAAAABtbHVjAAAAAAAAACYAAAAMaHJIUgAAABQAAAHYa29LUgAAAAwAAAHsbmJOTwAAABIAAAH4aWQAAAAAABIAAAIKaHVIVQAAABQAAAIcY3NDWgAAABYAAAIwZGFESwAAABwAAAJGbmxOTAAAABYAAAJiZmlGSQAAABAAAAJ4aXRJVAAAABgAAAKIZXNFUwAAABYAAAKgcm9STwAAABIAAAK2ZnJDQQAAABYAAALIYXIAAAAAABQAAALedWtVQQAAABwAAALyaGVJTAAAABYAAAMOemhUVwAAAAoAAAMkdmlWTgAAAA4AAAMuc2tTSwAAABYAAAM8emhDTgAAAAoAAAMkcnVSVQAAACQAAANSZW5HQgAAABQAAAN2ZnJGUgAAABYAAAOKbXMAAAAAABIAAAOgaGlJTgAAABIAAAOydGhUSAAAAAwAAAPEY2FFUwAAABgAAAPQZW5BVQAAABQAAAN2ZXNYTAAAABIAAAK2ZGVERQAAABAAAAPoZW5VUwAAABIAAAP4cHRCUgAAABgAAAQKcGxQTAAAABIAAAQiZWxHUgAAACIAAAQ0c3ZTRQAAABAAAARWdHJUUgAAABQAAARmcHRQVAAAABYAAAR6amFKUAAAAAwAAASQAEwAQwBEACAAdQAgAGIAbwBqAGnO7LfsACAATABDAEQARgBhAHIAZwBlAC0ATABDAEQATABDAEQAIABXAGEAcgBuAGEAUwB6AO0AbgBlAHMAIABMAEMARABCAGEAcgBlAHYAbgD9ACAATABDAEQATABDAEQALQBmAGEAcgB2AGUAcwBrAOYAcgBtAEsAbABlAHUAcgBlAG4ALQBMAEMARABWAOQAcgBpAC0ATABDAEQATABDAEQAIABhACAAYwBvAGwAbwByAGkATABDAEQAIABhACAAYwBvAGwAbwByAEwAQwBEACAAYwBvAGwAbwByAEEAQwBMACAAYwBvAHUAbABlAHUAciAPAEwAQwBEACAGRQZEBkgGRgYpBBoEPgQ7BEwEPgRABD4EMgQ4BDkAIABMAEMARCAPAEwAQwBEACAF5gXRBeIF1QXgBdlfaYJyAEwAQwBEAEwAQwBEACAATQDgAHUARgBhAHIAZQBiAG4A/QAgAEwAQwBEBCYEMgQ1BEIEPQQ+BDkAIAQWBBoALQQ0BDgEQQQ/BDsENQQ5AEMAbwBsAG8AdQByACAATABDAEQATABDAEQAIABjAG8AdQBsAGUAdQByAFcAYQByAG4AYQAgAEwAQwBECTAJAgkXCUAJKAAgAEwAQwBEAEwAQwBEACAOKg41AEwAQwBEACAAZQBuACAAYwBvAGwAbwByAEYAYQByAGIALQBMAEMARABDAG8AbABvAHIAIABMAEMARABMAEMARAAgAEMAbwBsAG8AcgBpAGQAbwBLAG8AbABvAHIAIABMAEMARAOIA7MDxwPBA8kDvAO3ACADvwO4A8wDvQO3ACAATABDAEQARgDkAHIAZwAtAEwAQwBEAFIAZQBuAGsAbABpACAATABDAEQATABDAEQAIABhACAAYwBvAHIAZQBzMKsw6TD8AEwAQwBEdGV4dAAAAABDb3B5cmlnaHQgQXBwbGUgSW5jLiwgMjAyMwAAWFlaIAAAAAAAAPMWAAEAAAABFspYWVogAAAAAAAAccAAADmKAAABZ1hZWiAAAAAAAABhIwAAueYAABP2WFlaIAAAAAAAACPyAAAMkAAAvdBjdXJ2AAAAAAAABAAAAAAFAAoADwAUABkAHgAjACgALQAyADYAOwBAAEUASgBPAFQAWQBeAGMAaABtAHIAdwB8AIEAhgCLAJAAlQCaAJ8AowCoAK0AsgC3ALwAwQDGAMsA0ADVANsA4ADlAOsA8AD2APsBAQEHAQ0BEwEZAR8BJQErATIBOAE+AUUBTAFSAVkBYAFnAW4BdQF8AYMBiwGSAZoBoQGpAbEBuQHBAckB0QHZAeEB6QHyAfoCAwIMAhQCHQImAi8COAJBAksCVAJdAmcCcQJ6AoQCjgKYAqICrAK2AsECywLVAuAC6wL1AwADCwMWAyEDLQM4A0MDTwNaA2YDcgN+A4oDlgOiA64DugPHA9MD4APsA/kEBgQTBCAELQQ7BEgEVQRjBHEEfgSMBJoEqAS2BMQE0wThBPAE/gUNBRwFKwU6BUkFWAVnBXcFhgWWBaYFtQXFBdUF5QX2BgYGFgYnBjcGSAZZBmoGewaMBp0GrwbABtEG4wb1BwcHGQcrBz0HTwdhB3QHhgeZB6wHvwfSB+UH+AgLCB8IMghGCFoIbgiCCJYIqgi+CNII5wj7CRAJJQk6CU8JZAl5CY8JpAm6Cc8J5Qn7ChEKJwo9ClQKagqBCpgKrgrFCtwK8wsLCyILOQtRC2kLgAuYC7ALyAvhC/kMEgwqDEMMXAx1DI4MpwzADNkM8w0NDSYNQA1aDXQNjg2pDcMN3g34DhMOLg5JDmQOfw6bDrYO0g7uDwkPJQ9BD14Peg+WD7MPzw/sEAkQJhBDEGEQfhCbELkQ1xD1ERMRMRFPEW0RjBGqEckR6BIHEiYSRRJkEoQSoxLDEuMTAxMjE0MTYxODE6QTxRPlFAYUJxRJFGoUixStFM4U8BUSFTQVVhV4FZsVvRXgFgMWJhZJFmwWjxayFtYW+hcdF0EXZReJF64X0hf3GBsYQBhlGIoYrxjVGPoZIBlFGWsZkRm3Gd0aBBoqGlEadxqeGsUa7BsUGzsbYxuKG7Ib2hwCHCocUhx7HKMczBz1HR4dRx1wHZkdwx3sHhYeQB5qHpQevh7pHxMfPh9pH5Qfvx/qIBUgQSBsIJggxCDwIRwhSCF1IaEhziH7IiciVSKCIq8i3SMKIzgjZiOUI8Ij8CQfJE0kfCSrJNolCSU4JWgllyXHJfcmJyZXJocmtyboJxgnSSd6J6sn3CgNKD8ocSiiKNQpBik4KWspnSnQKgIqNSpoKpsqzysCKzYraSudK9EsBSw5LG4soizXLQwtQS12Last4S4WLkwugi63Lu4vJC9aL5Evxy/+MDUwbDCkMNsxEjFKMYIxujHyMioyYzKbMtQzDTNGM38zuDPxNCs0ZTSeNNg1EzVNNYc1wjX9Njc2cjauNuk3JDdgN5w31zgUOFA4jDjIOQU5Qjl/Obw5+To2OnQ6sjrvOy07azuqO+g8JzxlPKQ84z0iPWE9oT3gPiA+YD6gPuA/IT9hP6I/4kAjQGRApkDnQSlBakGsQe5CMEJyQrVC90M6Q31DwEQDREdEikTORRJFVUWaRd5GIkZnRqtG8Ec1R3tHwEgFSEtIkUjXSR1JY0mpSfBKN0p9SsRLDEtTS5pL4kwqTHJMuk0CTUpNk03cTiVObk63TwBPSU+TT91QJ1BxULtRBlFQUZtR5lIxUnxSx1MTU19TqlP2VEJUj1TbVShVdVXCVg9WXFapVvdXRFeSV+BYL1h9WMtZGllpWbhaB1pWWqZa9VtFW5Vb5Vw1XIZc1l0nXXhdyV4aXmxevV8PX2Ffs2AFYFdgqmD8YU9homH1YklinGLwY0Njl2PrZEBklGTpZT1lkmXnZj1mkmboZz1nk2fpaD9olmjsaUNpmmnxakhqn2r3a09rp2v/bFdsr20IbWBtuW4SbmtuxG8eb3hv0XArcIZw4HE6cZVx8HJLcqZzAXNdc7h0FHRwdMx1KHWFdeF2Pnabdvh3VnezeBF4bnjMeSp5iXnnekZ6pXsEe2N7wnwhfIF84X1BfaF+AX5ifsJ/I3+Ef+WAR4CogQqBa4HNgjCCkoL0g1eDuoQdhICE44VHhauGDoZyhteHO4efiASIaYjOiTOJmYn+imSKyoswi5aL/IxjjMqNMY2Yjf+OZo7OjzaPnpAGkG6Q1pE/kaiSEZJ6kuOTTZO2lCCUipT0lV+VyZY0lp+XCpd1l+CYTJi4mSSZkJn8mmia1ZtCm6+cHJyJnPedZJ3SnkCerp8dn4uf+qBpoNihR6G2oiailqMGo3aj5qRWpMelOKWpphqmi6b9p26n4KhSqMSpN6mpqhyqj6sCq3Wr6axcrNCtRK24ri2uoa8Wr4uwALB1sOqxYLHWskuywrM4s660JbSctRO1irYBtnm28Ldot+C4WbjRuUq5wro7urW7LrunvCG8m70VvY++Cr6Evv+/er/1wHDA7MFnwePCX8Lbw1jD1MRRxM7FS8XIxkbGw8dBx7/IPci8yTrJuco4yrfLNsu2zDXMtc01zbXONs62zzfPuNA50LrRPNG+0j/SwdNE08bUSdTL1U7V0dZV1tjXXNfg2GTY6Nls2fHadtr724DcBdyK3RDdlt4c3qLfKd+v4DbgveFE4cziU+Lb42Pj6+Rz5PzlhOYN5pbnH+ep6DLovOlG6dDqW+rl63Dr++yG7RHtnO4o7rTvQO/M8Fjw5fFy8f/yjPMZ86f0NPTC9VD13vZt9vv3ivgZ+Kj5OPnH+lf65/t3/Af8mP0p/br+S/7c/23//3BhcmEAAAAAAAMAAAACZmYAAPKnAAANWQAAE9AAAApbdmNndAAAAAAAAAABAAEAAAAAAAAAAQAAAAEAAAAAAAAAAQAAAAEAAAAAAAAAAQAAbmRpbgAAAAAAAAA2AACnQAAAVYAAAEzAAACewAAAJYAAAAzAAABQAAAAVEAAAjMzAAIzMwACMzMAAAAAAAAAAG1tb2QAAAAAAAAGEAAAoC4AAAAA0OXuAAAAAAAAAAAAAAAAAAAAAAB2Y2dwAAAAAAADAAAAAmZmAAMAAAACZmYAAwAAAAJmZgAAAAIzMzQAAAAAAjMzNAAAAAACMzM0AP/AABEIACgA1gMBIgACEQEDEQH/xAAfAAABBQEBAQEBAQAAAAAAAAAAAQIDBAUGBwgJCgv/xAC1EAACAQMDAgQDBQUEBAAAAX0BAgMABBEFEiExQQYTUWEHInEUMoGRoQgjQrHBFVLR8CQzYnKCCQoWFxgZGiUmJygpKjQ1Njc4OTpDREVGR0hJSlNUVVZXWFlaY2RlZmdoaWpzdHV2d3h5eoOEhYaHiImKkpOUlZaXmJmaoqOkpaanqKmqsrO0tba3uLm6wsPExcbHyMnK0tPU1dbX2Nna4eLj5OXm5+jp6vHy8/T19vf4+fr/xAAfAQADAQEBAQEBAQEBAAAAAAAAAQIDBAUGBwgJCgv/xAC1EQACAQIEBAMEBwUEBAABAncAAQIDEQQFITEGEkFRB2FxEyIygQgUQpGhscEJIzNS8BVictEKFiQ04SXxFxgZGiYnKCkqNTY3ODk6Q0RFRkdISUpTVFVWV1hZWmNkZWZnaGlqc3R1dnd4eXqCg4SFhoeIiYqSk5SVlpeYmZqio6Slpqeoqaqys7S1tre4ubrCw8TFxsfIycrS09TV1tfY2dri4+Tl5ufo6ery8/T19vf4+fr/2wBDAAICAgICAgMCAgMFAwMDBQYFBQUFBggGBgYGBggKCAgICAgICgoKCgoKCgoMDAwMDAwODg4ODg8PDw8PDw8PDw//2wBDAQICAgQEBAcEBAcQCwkLEBAQEBAQEBAQEBAQEBAQEBAQEBAQEBAQEBAQEBAQEBAQEBAQEBAQEBAQEBAQEBAQEBD/3QAEAA7/2gAMAwEAAhEDEQA/AP3u1S8l07TLvUIbSa/ktYZJVtrfZ50zIpYRx+YyJvfGF3Mq5IywHNfEyft5eC5fivN8DYvhx42k8d20K3EulR2FlJLHAyLIJXkS+MKptdfmZwPmAzkgV9z1+Pv/AAT/AP8Ai8H7WH7SX7Tk3761n1NfD2lT9d9pC/IB7YhtrU4HrQB+rvhHxBeeKNBt9av9Cv8Aw3NOXBsdSEAuowjFQXFtNPGNwG5cSE4IyAeK6WiigAooooAKKKKACiiigAooooAKKK+Xvgxres6j8ev2gtKv76e5stK1zQ47OCSRnjt0l0CxldYlJIQM7F2CgAsSTyTQB9Q0UUUAQXUzW9tNcJC9w0SMwjj273KjO1dxVcnoMkDPUivh+/8A28vBmmfFS0+CN98OPGyeOr6FbmHSksLGaZoGDN5heK+eJUAViWZwABzivuevx9/ZF/4vR/wUN/aI+PMn7/T/AAkI/C+nueUyri3LxH3WxZjjtL70Afqt4L8TX3i3RF1jUPDupeF5WkdPseqi3FzhejkWs9xGFbt8+fUDiusoooAKKKKACiiigAooooAKKKKAP//Q/Yr9pj4kD4Q/s/fEH4jpL5NxomjXktq2cf6W8Zjthn3mZB+NfMP/AAS1+G//AArz9jjwpdXEXlXvi6e7124GOT9pk8qBs991tFEfxqn+3L8MP2pv2j/htq/wT+HfhrRNL0K/vreSXVLvW3826trWQTRp9lW0xGWlVGOZWxtxznI9e8H6h+0p4B8A6F4H8OfCLQzD4d061061V/FjInl2kSwpnbpZOMKO1AH0H4w8dWvhTVvC+gLbm91LxXqP2G2hVwhVI4ZLm4nY4PyQwxMTxy5RMguK8n17wv8AtAfEbX9dgXxa/wALvDVlOLfTP7Kt7K/1S/iVf3l1cS3cdxDAjtxFFHH5gUbncM2xfNvgJ8NP2j9S+M/iP43/ALT02kQ3cOnppHhnSdFnlns9OtJ5BLeyEyqpM0zRQBpOWYKR8qBVH0B8eviZa/Bz4M+MvibckbvD+mXFxAuM+bdFdltEB3MkzIgHq1AHwd8C/CPxp+NviT4kX9j8fvGFv4N8Ka5J4e0u5WLSDcX9zYIPt9wW+w7PIErCOHavIVmLHOF/THwzo0/h7QLDRLrVLvW5rOJY3vb5o2urhh1klMSRpuPfair6ACvnP9kb4c/8KA/Zd8EeEvGM0en6haWQvNVkuXEey+1GVrmdZXcj5llm8vJPOAB2r6kkliiKCV1QyNtXJA3N1wPU8dKAJK/Mz9sf9oXx38Jv2jPglY6BqM1l4Ls9UtE8WrGQIni8QSTWdgbjuUjFrdyAZxuUEgsFx+mdfnH8XfhA37T/AOzT8ZPEGm2nn6p48drvw4V/1j23h7C6V5bf3buSGWdD/cu8HvQB+jlfnP8At1ftdax8IdAPwz+Di/bfiBrc9lp8t6qiS30Eao5jt5JiflN1NhjbwnJIVpWGxQHxfhP+2Zr3x9+EHgjwf8EAmpfFvW9MiTXLi5jZ7Lw00BNvdX9+OhZ5EZrW2zvmJUthNxrhv2nfhP4Z+Gkn7NHwm0qaa+fXvilpmr6xqF43mXur3tuGae6u5OrvIZMY+6q7VUBVUAA/WO0t/slrDa+Y83koqb5DudtoxuY9yepPrVPXJdZg0W/m8OW0F5q0dvK1pBczNbwS3AUmJJZUjlaNGbAZ1jcqMkKxGDqUUAfJX/CW/tt/9E38E/8AhUX3/wAqq+a/hB4l/a0i+OPx4m0bwJ4TuNUm1nRTqcM3iG7iht5RodkIlgkXTWMqtCEZiyoVclQCAGP6k18mfA1GH7RH7SDEEBte8P4PY48O2FAHS+DPEf7Vl74msbbx54G8KaZoLsRdXNj4hu7q5jTacGOF9NiVzuwMF1GO9fR1FFAHnPxg8e23ws+FPjD4k3ZXy/DOk3uogN0d7aFpET6uwCgdya+Cv+CSvgK58MfspReNdVDPqfxA1e/1iWWT/WNGri0j3H0JgaQf7+e9eg/tr+A/2nPjr8MfE/wQ+F3hrRrPSdda2jfWbzWnSZ7aKSOeRBaLaHYXdNhJlYbM8fNx0fwpg/aS+Enwm8K/DLRPhPodwvhbSrTTkkbxW0azPbRKjStjTGIMjAuevJNAH05458c2vgr+wLb7Ob7UPEmrWmlWdsrhGkaYmSeQEg8W9rHNcMMcrGRkEg13dfDXwd+G/wC014n+Pt78aP2mDo1hp2habJYeF9E0S5lube1kvHH2q6laVELTmJFi39CrsFVB1+uPHnjHS/h74L1vxvrIZ7PRLSW6eOMZkl8tSVijH8UkjYRFHLMQByaAPz58JftC+O5f+Cjuu/DDXNSmb4fa5pFzp3h63JAgbVdHSCe+ZABy6k3CMTk/KB0AFfpnX5LftZ/DjxJ8H/gj8Jv2h7Oy+0+Lvg94iTxHr623zGaLXZzNrqIepSS4lAzn5Y8knAyPf9Q+KV9+15dn4f8AwD1eaz+HKLH/AMJN4vtd0TSpKgc6TpMhAJuXRgLm4HFsp2rmYgKAcV40/ay1jx1+1r8Mv2ePhIzp4au9Sv5tb15ADFeNolu9xPYWj/xRpKqR3Eq8M5MIPyyA/o/X5jWfhfw1o3/BSvwR4C8K2MOmaF4A+Fc01jZwKFitzPqL2xVR7xsuSeT1JJya/TWSWKIoJXVDI21ckDcx7D1PHSgDx34jQfGbXfEGl+Fvhzc23hjQ5oJZ9T8QSpFd3UTj5YbaytJMoZGPzvLMrRqgwquzfJ8OeIfC/wAbr39p3QfgH4Y+P3i24YaLc+IvEd21voyraWZk+z2cMCRWCos005LENkLGuQp3ZX9Sa+B/2PbSbx/8Tfjh+01Opaw8b69Ho2hyMOJdI8OIbNZ4j/zznm3njqVyaAPqr4XfD7Xfh9pV1YeIPHGs+Orm5lEn2rWfsoeJQMCONbSCBAvc5DEnvjAHp1U9P1HT9WtEv9Kuory1kLBZYXWSNirFWwykg4YEHnggirlAH//R/fyiiigAr4y8afsTeD/iFdm78XfEXx9fqL1NRjgPiKVbaG6ifzIpIYFQRxmJuY9ijYQCuMV9m0UAfMnhf9lPwFoep2eq+JfEHijx4+m3EV5aQeJ9evNVtLe6hJMc62sjiBpEJyjujFGwyYYZqr+1J8HvDnxd0zwZDfW99J4i0TX7O80KaymliFpdq2ZLqYp8nl28KvL8+3cyLGrbpArfUtYOqf8AIW0b/rtL/wCiXoA+bPjz+zN4i+Nfjnw/4lsfip4h8GaLYWslhqmj6TMYrfU7SZ98qsyupjkcfIZMOQoG0Kck/Umm6bp+jada6RpNvHaWNjEkEEMShI4oolCoiKOAqqAAB0FXaKAOM8GfDrwJ8O4tSg8C6DZ6Ems3s2o3otIVi+0XdwxaSWQqMsxJ79BgDAAFeT/H/wDZt8M/tBXHgnUdZ1zVPDuo+AtXj1jTrzSnhSdZkA+UmaKVcEhT93t3BIr6LooAp6dZLpun2unJLLOtrEkQkncyyuEULukdslmOMsx5J5NXKKKACmLHGjO6KFZzliBgkgYyfXgYp9FABRRRQAUUUUAFfIMv7Kupan8fr74u+JviXr2s+Fbm6ttSi8HTyf8AEqi1GzRFt5sBtrJC0aypGI1/eqjszFcH6+ooAy9b0TSPEujX/h3X7SPUNM1SCW1uraZQ8U0EylJI3U8FWUkEelVPCvhXw34H8O6f4S8H6ZBo+jaVEsFraWsYjhhjXoqqvHuT1JyTyTW/RQB80eJ/2YPC/iT9ojSv2kY/EOsaPr2naSujTWthPHDa3lok7XAScmNpcFm+YJIuQqjsc0f2pvg94c+L2jeELW/t76TxDo2vWl3oU1lNLCLS9U5a6mKfJ5dvCHm+fG5kEanfIFb6lrB1T/kK6N/13l/9ESUAeLfFX9nXTvi5q0upav488Y6JbzW/2ZrDRNbl02yMZBDbooVG8vk7i5Y844GAPO/C/wCxF8PvC2nWfh628ceO7rw7ZQC1TR5PFN9Fp5tguwQmK2aHEe3jYpAxx04r7LooAydB0HRfC2i2Phvw3Yw6ZpWmQpb2trbRrFDDDGNqIiLgKqgYAFa1FFAH/9k=;" parent="1" vertex="1">
          <mxGeometry x="-615" y="-3" width="107" height="20" as="geometry" />
        </mxCell>
        <mxCell id="w7VxPu3hipmNuZ68DGWy-5" value="&lt;font style=&quot;font-size: 14px;&quot;&gt;目标函数（对称loss）：&lt;/font&gt;" style="text;html=1;strokeColor=none;fillColor=none;align=center;verticalAlign=middle;whiteSpace=wrap;rounded=0;" parent="1" vertex="1">
          <mxGeometry x="-775" y="-8" width="160" height="30" as="geometry" />
        </mxCell>
        <mxCell id="w7VxPu3hipmNuZ68DGWy-6" value="&lt;div style=&quot;&quot;&gt;&lt;span style=&quot;font-size: 14px; background-color: initial;&quot;&gt;同一个batch中i 不等于j的pair对作为负样本&lt;/span&gt;&lt;/div&gt;" style="text;html=1;strokeColor=none;fillColor=none;align=left;verticalAlign=middle;whiteSpace=wrap;rounded=0;" parent="1" vertex="1">
          <mxGeometry x="-346" y="-115.5" width="342" height="30" as="geometry" />
        </mxCell>
        <mxCell id="w7VxPu3hipmNuZ68DGWy-7" value="&lt;div style=&quot;&quot;&gt;&lt;span style=&quot;font-size: 14px; background-color: initial;&quot;&gt;I：图像模态；M：其他模态&lt;br&gt;图像和视频共用一个VIT encoder，视频2s抽2帧，音频2s特征提取经过VIT编码&lt;/span&gt;&lt;/div&gt;&lt;div style=&quot;&quot;&gt;&lt;span style=&quot;font-size: 14px; background-color: initial;&quot;&gt;热度和深度图看做单通道图像，使用一个VIT进行编码&lt;br&gt;文本 encoder与CLIP一致&lt;/span&gt;&lt;/div&gt;" style="text;html=1;strokeColor=none;fillColor=none;align=left;verticalAlign=middle;whiteSpace=wrap;rounded=0;" parent="1" vertex="1">
          <mxGeometry x="-692" y="-85.5" width="514" height="75" as="geometry" />
        </mxCell>
      </root>
    </mxGraphModel>
  </diagram>
</mxfile>
